<svg width="319" height="95" viewBox="0 0 319 95" fill="none" xmlns="http://www.w3.org/2000/svg">
<g clip-path="url(#clip0_3080_926)">
<path d="M-0.00390625 60.5635C99.0459 17.5927 219.895 17.5926 318.944 60.5635V65.5645C281.22 49.1984 240.333 39.0666 198.693 35.167C198.785 35.1756 198.877 35.1837 198.969 35.1924C198.882 35.0835 198.789 34.9768 198.689 34.873C197.937 34.0917 197.011 33.7003 195.911 33.7002H192.98L192.978 34.6699C193.185 34.6865 193.392 34.7048 193.599 34.7217C127.514 29.3465 59.7841 39.6266 -0.00390625 65.5645V60.5635ZM195.774 34.9033C196.016 34.9243 196.257 34.9464 196.499 34.9678C196.257 34.9464 196.016 34.9242 195.774 34.9033Z" fill="url(#paint0_linear_3080_926)"/>
<path d="M174.56 15.5586C176.18 15.5586 177.634 15.9562 178.922 16.752C180.224 17.5478 181.266 18.6191 182.048 19.9648C182.844 21.296 183.242 22.779 183.242 24.4141L183.285 38.501C183.285 40.1215 182.895 41.6046 182.113 42.9502C181.317 44.3103 180.261 45.3957 178.944 46.2061C177.628 47.0164 176.166 47.4219 174.56 47.4219C172.982 47.4219 171.528 47.0164 170.196 46.2061C168.88 45.3958 167.816 44.3181 167.006 42.9727C166.21 41.6125 165.813 40.1216 165.812 38.501L165.855 24.4141C165.855 22.7645 166.254 21.2816 167.05 19.9648C167.831 18.6336 168.887 17.5693 170.219 16.7734C171.55 15.9632 172.997 15.5586 174.56 15.5586ZM174.56 20.8975C173.648 20.8975 172.867 21.2309 172.216 21.8965C171.565 22.5621 171.238 23.4011 171.238 24.4141V28.5039C169.441 28.4537 167.644 28.4159 165.847 28.3887L165.831 33.3896C167.634 33.4169 169.436 33.4545 171.238 33.5049V38.501C171.238 39.4704 171.565 40.3095 172.216 41.0186C172.867 41.713 173.648 42.0605 174.56 42.0605C175.457 42.0605 176.238 41.6988 176.903 40.9756C177.569 40.2376 177.902 39.4126 177.902 38.501L177.858 24.4141C177.858 23.4302 177.548 22.598 176.926 21.918C176.304 21.2379 175.515 20.8975 174.56 20.8975Z" fill="white"/>
<path fill-rule="evenodd" clip-rule="evenodd" d="M48.509 15.5586C50.1297 15.5586 51.5839 15.9565 52.8718 16.7524C54.1741 17.5483 55.216 18.6191 55.9974 19.9648C56.7933 21.2961 57.1912 22.7793 57.1912 24.4144L57.2346 38.5012C57.2346 40.1219 56.8439 41.6051 56.0625 42.9509C55.2666 44.3111 54.2103 45.3963 52.8935 46.2067C51.5767 47.017 50.1152 47.4222 48.509 47.4222C46.9317 47.4222 45.4775 47.017 44.1462 46.2067C42.8294 45.3963 41.7659 44.3183 40.9555 42.9726C40.1597 41.6124 39.7617 40.1219 39.7617 38.5012L39.8051 24.4144C39.8051 22.7648 40.2031 21.2816 40.9989 19.9648C41.7803 18.6335 42.8367 17.57 44.1679 16.7741C45.4992 15.9638 46.9462 15.5586 48.509 15.5586ZM48.509 20.8981C47.5974 20.8981 46.816 21.2309 46.1648 21.8966C45.5137 22.5622 45.1881 23.4015 45.1881 24.4144V38.5012C45.1881 39.4708 45.5137 40.31 46.1648 41.0191C46.816 41.7137 47.5974 42.0609 48.509 42.0609C49.4062 42.0609 50.1876 41.6992 50.8532 40.9757C51.5188 40.2377 51.8516 39.4129 51.8516 38.5012L51.8082 24.4144C51.8082 23.4304 51.4971 22.5984 50.8749 21.9183C50.2527 21.2382 49.4641 20.8981 48.509 20.8981Z" fill="white"/>
<path d="M104.495 15.5586C106.145 15.5586 107.614 15.9566 108.902 16.7524C110.204 17.5482 111.239 18.6263 112.006 19.9865C112.787 21.3322 113.178 22.8372 113.178 24.5012V26.5415C113.178 26.6573 113.12 26.7152 113.004 26.7152H108.012C107.896 26.7152 107.838 26.6573 107.838 26.5415V24.5012C107.838 23.5173 107.52 22.6707 106.883 21.9617C106.246 21.2527 105.45 20.8981 104.495 20.8981C103.439 20.8982 102.629 21.2599 102.064 21.9834C101.5 22.7069 101.218 23.5462 101.218 24.5012V38.371C101.218 39.4563 101.536 40.3462 102.173 41.0408C102.81 41.7209 103.584 42.0609 104.495 42.0609C105.451 42.0609 106.246 41.6847 106.883 40.9323C107.52 40.1653 107.838 39.3116 107.838 38.371V36.309C107.838 36.1933 107.896 36.1354 108.012 36.1354H113.047C113.163 36.1354 113.221 36.1932 113.221 36.309V38.371C113.221 40.0351 112.83 41.5545 112.049 42.9292C111.253 44.2893 110.204 45.3819 108.902 46.2067C107.599 47.017 106.131 47.4222 104.495 47.4222C102.889 47.4222 101.421 47.017 100.089 46.2067C98.7725 45.3963 97.7234 44.311 96.942 42.9509C96.1751 41.5762 95.7916 40.0495 95.7916 38.371L95.835 24.5012C95.835 22.8516 96.2113 21.3612 96.9637 20.0299C97.7161 18.6842 98.7508 17.6061 100.068 16.7958C101.399 15.971 102.875 15.5586 104.495 15.5586Z" fill="white"/>
<path d="M125.95 15.602C127.527 15.602 128.974 15.9927 130.291 16.7741C131.608 17.57 132.657 18.6263 133.438 19.9431C134.234 21.2599 134.632 22.7359 134.632 24.371V28.0175C134.632 28.1333 134.574 28.1912 134.458 28.1912H129.466C129.35 28.1912 129.292 28.1333 129.292 28.0175L129.249 24.371C129.249 23.3291 128.923 22.4826 128.272 21.8315C127.621 21.1803 126.847 20.8547 125.95 20.8547C125.038 20.8547 124.257 21.202 123.605 21.8966C122.954 22.5912 122.629 23.416 122.629 24.371C122.629 25.3405 122.831 26.1508 123.237 26.802C123.656 27.4532 124.416 28.0754 125.516 28.6687C125.631 28.7266 125.899 28.8713 126.319 29.1028C126.738 29.3343 127.201 29.5948 127.708 29.8842C128.229 30.1591 128.699 30.4124 129.119 30.6439C129.538 30.8609 129.792 30.9912 129.878 31.0346C131.354 31.8594 132.519 32.8723 133.373 34.0733C134.241 35.2744 134.675 36.7503 134.675 38.5012C134.675 40.1943 134.285 41.7137 133.503 43.0594C132.707 44.4051 131.651 45.4687 130.334 46.2501C129.017 47.0315 127.556 47.4222 125.95 47.4222C124.372 47.4222 122.918 47.017 121.587 46.2067C120.27 45.3963 119.214 44.3183 118.418 42.9726C117.637 41.6124 117.246 40.1219 117.246 38.5012V36.4609C117.246 36.3018 117.318 36.2222 117.463 36.2222H122.455C122.571 36.2222 122.629 36.3018 122.629 36.4609V38.5012C122.629 39.4708 122.954 40.31 123.605 41.0191C124.257 41.7137 125.038 42.0609 125.95 42.0609C126.876 42.0609 127.664 41.7064 128.316 40.9974C128.967 40.2739 129.292 39.4418 129.292 38.5012C129.292 37.416 128.583 36.4682 127.165 35.6578C126.934 35.5131 126.63 35.3395 126.254 35.1369C125.892 34.9198 125.458 34.6739 124.951 34.3989C124.445 34.124 123.953 33.8563 123.475 33.5958C122.998 33.3209 122.535 33.0604 122.086 32.8144C120.465 31.8594 119.257 30.6656 118.461 29.233C117.68 27.786 117.289 26.1653 117.289 24.371C117.289 22.7214 117.694 21.2309 118.505 19.8997C119.315 18.5829 120.371 17.541 121.674 16.7741C122.991 15.9927 124.416 15.602 125.95 15.602Z" fill="white"/>
<path fill-rule="evenodd" clip-rule="evenodd" d="M248.75 15.5586C250.37 15.5586 251.825 15.9566 253.113 16.7524C254.415 17.5483 255.457 18.6191 256.238 19.9648C257.034 21.2961 257.432 22.7793 257.432 24.4144L257.475 38.5012C257.475 40.1219 257.085 41.6051 256.303 42.9509C255.507 44.311 254.451 45.3963 253.134 46.2067C251.818 47.017 250.356 47.4222 248.75 47.4222C247.173 47.4222 245.718 47.017 244.387 46.2067C243.07 45.3963 242.007 44.3183 241.196 42.9726C240.401 41.6124 240.003 40.1219 240.003 38.5012L240.046 24.4144C240.046 22.7648 240.444 21.2816 241.24 19.9648C242.021 18.6336 243.078 17.57 244.409 16.7741C245.74 15.9638 247.187 15.5586 248.75 15.5586ZM248.75 20.8981C247.838 20.8982 247.057 21.231 246.406 21.8966C245.755 22.5622 245.429 23.4015 245.429 24.4144V38.5012C245.429 39.4707 245.755 40.31 246.406 41.0191C247.057 41.7136 247.838 42.0609 248.75 42.0609C249.647 42.0609 250.428 41.6991 251.094 40.9757C251.76 40.2377 252.092 39.4129 252.092 38.5012L252.049 24.4144C252.049 23.4304 251.738 22.5984 251.116 21.9183C250.494 21.2382 249.705 20.8981 248.75 20.8981Z" fill="white"/>
<path d="M91.3382 16.1202C91.4539 16.1202 91.5118 16.1781 91.5118 16.2939L91.5552 46.8334C91.5552 46.9781 91.4974 47.0505 91.3816 47.0505H86.3459C86.2012 47.0505 86.1289 46.9781 86.1289 46.8334L86.1723 16.2939C86.1723 16.1781 86.2302 16.1202 86.3459 16.1202H91.3382Z" fill="white"/>
<path d="M67.0889 16.0578C67.2046 16.0578 67.3059 16.1157 67.3927 16.2315L71.4517 22.0919L75.4889 16.2315C75.5757 16.1157 75.6842 16.0578 75.8145 16.0578H81.2625C81.3928 16.0578 81.4579 16.1157 81.4579 16.2315L81.5447 46.771C81.5447 46.9157 81.4868 46.9881 81.371 46.9881H76.3354C76.2196 46.9881 76.1617 46.9157 76.1617 46.771L76.1183 24.0888L71.4517 30.8609L66.8284 24.0888L66.785 46.771C66.785 46.9157 66.7271 46.9881 66.6113 46.9881H61.5757C61.4599 46.9881 61.402 46.9157 61.402 46.771L61.4889 16.2315C61.4889 16.1157 61.5467 16.0578 61.6625 16.0578H67.0889Z" fill="white"/>
<path d="M149.578 16.0578C149.722 16.0578 149.795 16.1157 149.795 16.2315L149.751 28.3214V46.771C149.751 46.9157 149.693 46.9881 149.578 46.9881H144.542C144.426 46.988 144.368 46.9157 144.368 46.771L144.412 16.2315C144.412 16.1157 144.484 16.0578 144.629 16.0578H149.578Z" fill="white"/>
<path d="M161.537 16.0578C161.682 16.0578 161.754 16.1157 161.754 16.2315L161.841 46.771C161.841 46.9157 161.769 46.9881 161.624 46.9881H156.632C156.487 46.988 156.415 46.9157 156.415 46.771V33.3397C154.194 33.3558 151.972 33.3894 149.752 33.4406V28.4397C151.972 28.3885 154.194 28.3549 156.415 28.3388V16.2315C156.415 16.1157 156.473 16.0579 156.589 16.0578H161.537Z" fill="white"/>
<path fill-rule="evenodd" clip-rule="evenodd" d="M196.807 16.0578C198.413 16.0578 199.889 16.4485 201.235 17.2299C202.581 18.0113 203.652 19.0604 204.447 20.3772C205.258 21.694 205.663 23.1844 205.663 24.8485C205.663 25.9338 205.497 26.9178 205.164 27.8005C204.831 28.6832 204.44 29.4284 203.992 30.0361C203.557 30.6439 203.16 31.0925 202.798 31.3819C204.404 33.1617 205.207 35.2527 205.207 37.6547L205.251 46.771C205.251 46.9157 205.178 46.9881 205.033 46.9881H199.998C199.882 46.9881 199.824 46.9447 199.824 46.8578V37.6547C199.824 36.5839 199.448 35.6578 198.695 34.8764C197.943 34.095 197.017 33.7043 195.917 33.7043H192.987L192.944 46.771C192.944 46.9157 192.886 46.9881 192.77 46.9881H187.734C187.618 46.9881 187.561 46.9157 187.561 46.771L187.647 16.2315C187.647 16.1157 187.705 16.0578 187.821 16.0578H196.807ZM192.987 28.3648H196.807C197.719 28.3648 198.529 28.0248 199.238 27.3446C199.962 26.6645 200.323 25.8325 200.323 24.8485C200.323 23.908 199.976 23.0976 199.282 22.4175C198.587 21.7229 197.762 21.3757 196.807 21.3757H192.987V28.3648Z" fill="white"/>
<path d="M215.276 16.0578C215.392 16.0578 215.45 16.1157 215.45 16.2315L215.493 46.771C215.493 46.9157 215.435 46.9881 215.32 46.9881H210.284C210.139 46.988 210.067 46.9156 210.067 46.771L210.11 16.2315C210.11 16.1158 210.168 16.0579 210.284 16.0578H215.276Z" fill="white"/>
<path d="M236.531 16.0578C236.675 16.0579 236.748 16.1302 236.748 16.2749V21.0718L225.917 41.7788H236.618C236.733 41.7788 236.791 41.8584 236.791 42.0175L236.835 46.771C236.835 46.9157 236.762 46.988 236.618 46.9881H220.035C219.89 46.9881 219.818 46.9157 219.818 46.771L219.861 41.9307L230.757 21.1152H220.447C220.317 21.1152 220.252 21.0573 220.252 20.9415V16.2749C220.252 16.1302 220.317 16.0578 220.447 16.0578H236.531Z" fill="white"/>
<path d="M273.602 33.5741L273.385 16.4051C273.385 16.1736 273.515 16.0578 273.776 16.0578H278.182C278.355 16.0579 278.442 16.1737 278.442 16.4051L278.486 46.7276C278.486 46.9012 278.413 46.988 278.269 46.9881H274.362L266.656 30.6222L266.982 46.6408C266.982 46.8723 266.844 46.988 266.569 46.9881H262.12C261.888 46.9881 261.773 46.8868 261.773 46.6842L261.729 16.4051C261.729 16.1736 261.845 16.0578 262.076 16.0578H266.092L273.602 33.5741Z" fill="white"/>
<path d="M57 64.4793H59.2149L63 73.7521H63.1488L66.9339 64.4793H69.1488V76.4463H67.4132V67.8017H67.2975L63.7934 76.4298H62.3554L58.8347 67.7851H58.7355V76.4463H57V64.4793Z" fill="white"/>
<path d="M77.318 72.7107V67.4711H79.0701V76.4463H77.3511V74.8926H77.2519C76.8387 75.8512 75.9213 76.562 74.5742 76.562C72.8387 76.562 71.6155 75.3967 71.6155 73.1736V67.4711H73.3841V72.9587C73.3841 74.1818 74.1279 74.9587 75.2023 74.9587C76.1858 74.9587 77.318 74.2397 77.318 72.7107Z" fill="white"/>
<path d="M83.1567 64.4793V76.4463H81.3881V64.4793H83.1567Z" fill="white"/>
<path d="M89.6731 67.4711V68.876H87.8384V73.8017C87.8466 74.8182 88.3425 75 88.9127 75.0083C89.1689 75.0083 89.5574 74.9835 89.8053 74.9587V76.4959C89.5656 76.5289 89.1855 76.562 88.6979 76.562C87.3177 76.562 86.0698 75.8017 86.0863 74.1653V68.876H84.764V67.4711H86.0863V65.3223H87.8384V67.4711H89.6731Z" fill="white"/>
<path d="M91.5613 76.4463V67.4711H93.3299V76.4463H91.5613ZM91.3299 65.0413C91.3382 64.4628 91.8423 64 92.4539 64C93.0572 64 93.5613 64.4628 93.5613 65.0413C93.5613 65.6198 93.0572 66.0909 92.4539 66.0826C91.8423 66.0909 91.3382 65.6198 91.3299 65.0413Z" fill="white"/>
<path d="M100.937 70.6281V72.1488H95.6314V70.6281H100.937Z" fill="white"/>
<path d="M107.04 76.6281C104.495 76.6281 102.834 74.7769 102.842 72C102.834 69.2066 104.495 67.3554 107.04 67.3554C109.569 67.3554 111.222 69.2066 111.222 72C111.222 74.7769 109.569 76.6281 107.04 76.6281ZM104.611 72C104.611 73.7107 105.396 75.157 107.04 75.157C108.66 75.157 109.437 73.7107 109.437 72C109.437 70.281 108.66 68.8182 107.04 68.8099C105.396 68.8182 104.611 70.281 104.611 72Z" fill="white"/>
<path d="M113.127 76.4463V67.4711H114.829V68.9421H114.929C115.309 67.9421 116.193 67.3554 117.375 67.3554C118.573 67.3554 119.408 67.9421 119.788 68.9421H119.887C120.309 67.9752 121.284 67.3554 122.581 67.3554C124.201 67.3554 125.35 68.3719 125.358 70.4298V76.4463H123.59V70.595C123.59 69.3802 122.829 68.876 121.904 68.876C120.772 68.876 120.119 69.6529 120.119 70.7273V76.4463H118.367V70.4959C118.367 69.5124 117.697 68.876 116.73 68.876C115.739 68.876 114.896 69.7025 114.896 70.9091V76.4463H113.127Z" fill="white"/>
<path d="M127.66 76.4463V67.4711H129.428V76.4463H127.66ZM127.428 65.0413C127.437 64.4628 127.941 64 128.552 64C129.156 64 129.66 64.4628 129.66 65.0413C129.66 65.6198 129.156 66.0909 128.552 66.0826C127.941 66.0909 127.437 65.6198 127.428 65.0413Z" fill="white"/>
<path d="M135.548 76.6281C132.928 76.6281 131.341 74.7025 131.35 72C131.341 69.2645 132.986 67.3554 135.515 67.3554C137.565 67.3554 139.044 68.562 139.234 70.3802H137.515C137.333 69.5372 136.664 68.8347 135.548 68.8264C134.094 68.8347 133.118 70.0413 133.118 71.9504C133.118 73.9174 134.069 75.1322 135.548 75.124C136.548 75.1322 137.292 74.5702 137.515 73.6033H139.234C139.044 75.3471 137.664 76.6281 135.548 76.6281Z" fill="white"/>
<path d="M146.114 69.9174C145.949 69.2066 145.387 68.7438 144.412 68.7438C143.403 68.7438 142.684 69.2645 142.693 69.9504C142.684 70.4793 143.106 70.8595 144.098 71.0909L145.519 71.4215C147.172 71.7934 147.974 72.5785 147.982 73.8512C147.974 75.4711 146.602 76.6281 144.312 76.6281C142.155 76.6281 140.883 75.6694 140.66 74H142.461C142.618 74.8099 143.23 75.2149 144.296 75.2066C145.436 75.2149 146.172 74.7355 146.18 73.9835C146.172 73.405 145.742 73.0331 144.792 72.8099L143.387 72.5124C141.767 72.157 140.924 71.2893 140.924 70.0496C140.924 68.4545 142.312 67.3554 144.395 67.3554C146.395 67.3554 147.643 68.3719 147.817 69.9174H146.114Z" fill="white"/>
<path d="M153.42 73.9174C153.412 71.8678 155.155 71.3388 156.775 71.2231C157.37 71.1901 158.717 71.1157 159.131 71.0992L159.122 70.3802C159.131 69.3636 158.502 68.7769 157.304 68.7769C156.263 68.7769 155.635 69.2562 155.453 69.9174H153.701C153.858 68.4298 155.246 67.3554 157.37 67.3554C158.8 67.3554 160.883 67.876 160.891 70.4793V76.4463H159.172V75.2231H159.106C158.759 75.8926 157.932 76.6446 156.445 76.6446C154.742 76.6446 153.412 75.6694 153.42 73.9174ZM155.139 73.9339C155.139 74.7934 155.85 75.2314 156.841 75.2397C158.279 75.2314 159.139 74.2727 159.139 73.2066L159.131 72.3884C158.726 72.4132 157.445 72.5041 157.023 72.5289C155.866 72.6116 155.139 73.0496 155.139 73.9339Z" fill="white"/>
<path d="M164.622 71.124V76.4463H162.854V67.4711H164.556V68.9421H164.656C165.077 67.9752 165.961 67.3554 167.3 67.3554C169.143 67.3554 170.366 68.5207 170.358 70.7438V76.4463H168.606V70.9587C168.598 69.6529 167.895 68.876 166.705 68.876C165.49 68.876 164.622 69.6942 164.622 71.124Z" fill="white"/>
<path d="M171.924 73.9174C171.916 71.8678 173.66 71.3388 175.28 71.2231C175.875 71.1901 177.222 71.1157 177.635 71.0992L177.627 70.3802C177.635 69.3636 177.007 68.7769 175.809 68.7769C174.767 68.7769 174.139 69.2562 173.957 69.9174H172.205C172.362 68.4298 173.751 67.3554 175.875 67.3554C177.304 67.3554 179.387 67.876 179.395 70.4793V76.4463H177.676V75.2231H177.61C177.263 75.8926 176.437 76.6446 174.949 76.6446C173.247 76.6446 171.916 75.6694 171.924 73.9174ZM173.643 73.9339C173.643 74.7934 174.354 75.2314 175.346 75.2397C176.784 75.2314 177.643 74.2727 177.643 73.2066L177.635 72.3884C177.23 72.4132 175.949 72.5041 175.528 72.5289C174.371 72.6116 173.643 73.0496 173.643 73.9339Z" fill="white"/>
<path d="M183.127 64.4793V76.4463H181.358V64.4793H183.127Z" fill="white"/>
<path d="M186.197 79.8182C185.834 79.8099 185.478 79.8017 185.255 79.7686V78.2975C185.454 78.314 185.801 78.3223 186.049 78.3306C186.594 78.3223 187.049 78.2893 187.47 77.157L187.685 76.562L184.396 67.4711H186.28L188.544 74.4298H188.644L190.908 67.4711H192.809L189.106 77.6364C188.586 79.0579 187.677 79.8099 186.197 79.8182Z" fill="white"/>
<path d="M199.119 69.9174C198.954 69.2066 198.392 68.7438 197.417 68.7438C196.408 68.7438 195.689 69.2645 195.698 69.9504C195.689 70.4793 196.111 70.8595 197.102 71.0909L198.524 71.4215C200.177 71.7934 200.979 72.5785 200.987 73.8512C200.979 75.4711 199.607 76.6281 197.317 76.6281C195.16 76.6281 193.888 75.6694 193.664 74H195.466C195.623 74.8099 196.235 75.2149 197.301 75.2066C198.441 75.2149 199.177 74.7355 199.185 73.9835C199.177 73.405 198.747 73.0331 197.797 72.8099L196.392 72.5124C194.772 72.157 193.929 71.2893 193.929 70.0496C193.929 68.4545 195.317 67.3554 197.4 67.3554C199.4 67.3554 200.648 68.3719 200.821 69.9174H199.119Z" fill="white"/>
<path d="M202.537 76.4463V67.4711H204.305V76.4463H202.537ZM202.305 65.0413C202.313 64.4628 202.818 64 203.429 64C204.032 64 204.537 64.4628 204.537 65.0413C204.537 65.6198 204.032 66.0909 203.429 66.0826C202.818 66.0909 202.313 65.6198 202.305 65.0413Z" fill="white"/>
<path d="M211.326 69.9174C211.161 69.2066 210.599 68.7438 209.623 68.7438C208.615 68.7438 207.896 69.2645 207.904 69.9504C207.896 70.4793 208.318 70.8595 209.309 71.0909L210.731 71.4215C212.384 71.7934 213.185 72.5785 213.194 73.8512C213.185 75.4711 211.814 76.6281 209.524 76.6281C207.367 76.6281 206.095 75.6694 205.871 74H207.673C207.83 74.8099 208.442 75.2149 209.508 75.2066C210.648 75.2149 211.384 74.7355 211.392 73.9835C211.384 73.405 210.954 73.0331 210.004 72.8099L208.599 72.5124C206.979 72.157 206.136 71.2893 206.136 70.0496C206.136 68.4545 207.524 67.3554 209.607 67.3554C211.607 67.3554 212.855 68.3719 213.028 69.9174H211.326Z" fill="white"/>
<path d="M218.293 73.9174C218.285 71.8678 220.029 71.3388 221.649 71.2231C222.244 71.1901 223.591 71.1157 224.004 71.0992L223.996 70.3802C224.004 69.3636 223.376 68.7769 222.178 68.7769C221.136 68.7769 220.508 69.2562 220.326 69.9174H218.574C218.731 68.4298 220.12 67.3554 222.244 67.3554C223.673 67.3554 225.756 67.876 225.764 70.4793V76.4463H224.045V75.2231H223.979C223.632 75.8926 222.806 76.6446 221.318 76.6446C219.616 76.6446 218.285 75.6694 218.293 73.9174ZM220.012 73.9339C220.012 74.7934 220.723 75.2314 221.715 75.2397C223.153 75.2314 224.012 74.2727 224.012 73.2066L224.004 72.3884C223.599 72.4132 222.318 72.5041 221.897 72.5289C220.739 72.6116 220.012 73.0496 220.012 73.9339Z" fill="white"/>
<path d="M231.496 80C229.231 80 227.736 79 227.579 77.3223H229.38C229.554 78.1736 230.347 78.5868 231.512 78.5785C232.917 78.5868 233.802 77.9752 233.81 76.5785V74.8099H233.694C233.38 75.3884 232.736 76.314 231.083 76.314C228.967 76.314 227.331 74.7355 227.331 71.8678C227.331 69 228.942 67.3554 231.099 67.3554C232.769 67.3554 233.38 68.3636 233.711 68.9256H233.826V67.4711H235.545V76.6446C235.554 78.9504 233.81 80 231.496 80ZM229.132 71.9008C229.124 73.6612 229.934 74.8512 231.479 74.8595C232.983 74.8512 233.826 73.7521 233.826 71.9008C233.826 70.0826 233 68.8512 231.479 68.8595C229.917 68.8512 229.124 70.1818 229.132 71.9008Z" fill="white"/>
<path d="M241.393 76.6281C238.748 76.6281 237.12 74.8017 237.128 72.0165C237.12 69.2562 238.773 67.3554 241.277 67.3554C243.318 67.3554 245.261 68.6198 245.261 71.8678V72.4959H238.88C238.93 74.2066 239.938 75.1736 241.409 75.1736C242.409 75.1736 243.062 74.7438 243.36 74.1983H245.145C244.748 75.6529 243.368 76.6281 241.393 76.6281ZM238.889 71.1736H243.525C243.525 69.8099 242.641 68.8017 241.294 68.8099C239.88 68.8017 238.963 69.9091 238.889 71.1736Z" fill="white"/>
<path d="M248.612 71.124V76.4463H246.843V67.4711H248.546V68.9421H248.645C249.066 67.9752 249.951 67.3554 251.29 67.3554C253.133 67.3554 254.356 68.5207 254.347 70.7438V76.4463H252.595V70.9587C252.587 69.6529 251.885 68.876 250.695 68.876C249.48 68.876 248.612 69.6942 248.612 71.124Z" fill="white"/>
<path d="M260.525 67.4711V68.876H258.691V73.8017C258.699 74.8182 259.195 75 259.765 75.0083C260.021 75.0083 260.41 74.9835 260.658 74.9587V76.4959C260.418 76.5289 260.038 76.562 259.55 76.562C258.17 76.562 256.922 75.8017 256.939 74.1653V68.876H255.616V67.4711H256.939V65.3223H258.691V67.4711H260.525Z" fill="white"/>
</g>
<defs>
<linearGradient id="paint0_linear_3080_926" x1="-0.00390625" y1="46.9505" x2="318.944" y2="46.9505" gradientUnits="userSpaceOnUse">
<stop stop-color="white" stop-opacity="0"/>
<stop offset="0.202702" stop-color="white" stop-opacity="0.4"/>
<stop offset="0.45" stop-color="white" stop-opacity="0.6"/>
<stop offset="0.519735" stop-color="white" stop-opacity="0.7"/>
<stop offset="0.616634" stop-color="white" stop-opacity="0.65"/>
<stop offset="0.844567" stop-color="white" stop-opacity="0.4"/>
<stop offset="1" stop-color="white" stop-opacity="0"/>
</linearGradient>
<clipPath id="clip0_3080_926">
<rect width="318.948" height="94.4621" fill="white"/>
</clipPath>
</defs>
</svg>
