<svg width="319" height="95" viewBox="0 0 319 95" fill="none" xmlns="http://www.w3.org/2000/svg">
<g clip-path="url(#clip0_3080_913)">
<path d="M0.00390625 60.5693C99.0537 17.5984 219.902 17.5985 318.952 60.5693V65.5703C281.31 49.2401 240.52 39.1175 198.975 35.1992C198.889 35.0912 198.796 34.9848 198.697 34.8818C197.945 34.1007 197.019 33.71 195.919 33.71H192.989L192.986 34.6758C127.099 29.4152 59.6047 39.7136 0.00390625 65.5703V60.5693Z" fill="url(#paint0_linear_3080_913)"/>
<path fill-rule="evenodd" clip-rule="evenodd" d="M48.5129 15.5566C50.1336 15.5566 51.5879 15.9546 52.8757 16.7504C54.178 17.5463 55.2199 18.6171 56.0013 19.9628C56.7972 21.2941 57.1951 22.7773 57.1951 24.4125L57.2385 38.4993C57.2385 40.12 56.8478 41.6032 56.0664 42.9489C55.2705 44.3091 54.2142 45.3944 52.8974 46.2047C51.5806 47.0151 50.1191 47.4202 48.5129 47.4202C46.9357 47.4202 45.4814 47.0151 44.1501 46.2047C42.8333 45.3944 41.7698 44.3164 40.9594 42.9706C40.1636 41.6104 39.7656 40.12 39.7656 38.4993L39.809 24.4125C39.809 22.7628 40.207 21.2796 41.0028 19.9628C41.7842 18.6316 42.8406 17.568 44.1718 16.7721C45.5031 15.9618 46.9501 15.5566 48.5129 15.5566ZM48.5129 20.8962C47.6013 20.8962 46.8199 21.229 46.1687 21.8946C45.5176 22.5603 45.192 23.3995 45.192 24.4125V38.4993C45.192 39.4688 45.5176 40.3081 46.1687 41.0171C46.8199 41.7117 47.6013 42.059 48.5129 42.059C49.4101 42.059 50.1915 41.6972 50.8571 40.9737C51.5227 40.2357 51.8556 39.4109 51.8556 38.4993L51.8121 24.4125C51.8121 23.4285 51.501 22.5964 50.8788 21.9163C50.2566 21.2362 49.468 20.8962 48.5129 20.8962Z" fill="url(#paint1_linear_3080_913)"/>
<path d="M104.499 15.5566C106.149 15.5566 107.618 15.9546 108.906 16.7504C110.208 17.5463 111.243 18.6244 112.009 19.9846C112.791 21.3303 113.182 22.8352 113.182 24.4993V26.5396C113.182 26.6554 113.124 26.7132 113.008 26.7132H108.016C107.9 26.7132 107.842 26.6553 107.842 26.5396V24.4993C107.842 23.5153 107.524 22.6688 106.887 21.9597C106.25 21.2507 105.454 20.8962 104.499 20.8962C103.443 20.8962 102.633 21.258 102.068 21.9815C101.504 22.705 101.222 23.5443 101.222 24.4993V38.3691C101.222 39.4543 101.54 40.3443 102.177 41.0388C102.814 41.7189 103.588 42.059 104.499 42.059C105.454 42.059 106.25 41.6827 106.887 40.9303C107.524 40.1634 107.842 39.3096 107.842 38.3691V36.307C107.842 36.1913 107.9 36.1334 108.016 36.1334H113.051C113.167 36.1334 113.225 36.1913 113.225 36.307V38.3691C113.225 40.0331 112.834 41.5525 112.053 42.9272C111.257 44.2874 110.208 45.3799 108.906 46.2047C107.603 47.015 106.135 47.4202 104.499 47.4202C102.893 47.4202 101.424 47.015 100.093 46.2047C98.7764 45.3944 97.7273 44.3091 96.9459 42.9489C96.179 41.5742 95.7955 40.0476 95.7955 38.3691L95.8389 24.4993C95.8389 22.8497 96.2152 21.3592 96.9676 20.028C97.72 18.6823 98.7547 17.6042 100.071 16.7939C101.403 15.9691 102.879 15.5567 104.499 15.5566Z" fill="url(#paint2_linear_3080_913)"/>
<path d="M125.954 15.6001C127.531 15.6001 128.978 15.9907 130.295 16.7721C131.611 17.568 132.661 18.6243 133.442 19.9411C134.238 21.2579 134.636 22.7339 134.636 24.369V28.0156C134.636 28.1313 134.578 28.1892 134.462 28.1892H129.47C129.354 28.1892 129.296 28.1313 129.296 28.0156L129.253 24.369C129.253 23.3272 128.927 22.4807 128.276 21.8295C127.625 21.1783 126.851 20.8528 125.954 20.8528C125.042 20.8528 124.261 21.2001 123.609 21.8946C122.958 22.5892 122.633 23.414 122.633 24.369C122.633 25.3386 122.835 26.1489 123.24 26.8001C123.66 27.4512 124.42 28.0734 125.519 28.6667C125.635 28.7246 125.903 28.8693 126.323 29.1008C126.742 29.3324 127.205 29.5928 127.712 29.8822C128.233 30.1572 128.703 30.4104 129.123 30.6419C129.542 30.859 129.795 30.9892 129.882 31.0326C131.358 31.8574 132.523 32.8703 133.377 34.0714C134.245 35.2724 134.679 36.7484 134.679 38.4993C134.679 40.1923 134.288 41.7117 133.507 43.0574C132.711 44.4032 131.655 45.4667 130.338 46.2481C129.021 47.0295 127.56 47.4202 125.954 47.4202C124.376 47.4202 122.922 47.0151 121.591 46.2047C120.274 45.3944 119.218 44.3164 118.422 42.9706C117.64 41.6104 117.25 40.12 117.25 38.4993V36.459C117.25 36.2998 117.322 36.2202 117.467 36.2202H122.459C122.575 36.2202 122.633 36.2998 122.633 36.459V38.4993C122.633 39.4688 122.958 40.3081 123.609 41.0171C124.261 41.7117 125.042 42.059 125.954 42.059C126.88 42.059 127.668 41.7045 128.319 40.9954C128.971 40.2719 129.296 39.4399 129.296 38.4993C129.296 37.414 128.587 36.4662 127.169 35.6559C126.938 35.5112 126.634 35.3375 126.257 35.1349C125.896 34.9179 125.462 34.6719 124.955 34.397C124.449 34.122 123.957 33.8543 123.479 33.5939C123.002 33.3189 122.539 33.0585 122.09 32.8125C120.469 31.8574 119.261 30.6636 118.465 29.2311C117.684 27.784 117.293 26.1634 117.293 24.369C117.293 22.7194 117.698 21.229 118.509 19.8977C119.319 18.5809 120.375 17.5391 121.678 16.7721C122.994 15.9907 124.42 15.6001 125.954 15.6001Z" fill="url(#paint3_linear_3080_913)"/>
<path fill-rule="evenodd" clip-rule="evenodd" d="M248.754 15.5566C250.374 15.5566 251.829 15.9546 253.117 16.7504C254.419 17.5463 255.461 18.6171 256.242 19.9628C257.038 21.2941 257.436 22.7773 257.436 24.4125L257.479 38.4993C257.479 40.12 257.089 41.6032 256.307 42.9489C255.511 44.3091 254.455 45.3944 253.138 46.2047C251.821 47.015 250.36 47.4202 248.754 47.4202C247.177 47.4202 245.722 47.015 244.391 46.2047C243.074 45.3944 242.011 44.3163 241.2 42.9706C240.404 41.6104 240.006 40.1199 240.006 38.4993L240.05 24.4125C240.05 22.7629 240.448 21.2796 241.244 19.9628C242.025 18.6316 243.081 17.568 244.413 16.7721C245.744 15.9618 247.191 15.5567 248.754 15.5566ZM248.754 20.8962C247.842 20.8962 247.061 21.229 246.41 21.8946C245.758 22.5603 245.433 23.3996 245.433 24.4125V38.4993C245.433 39.4688 245.758 40.3081 246.41 41.0171C247.061 41.7117 247.842 42.059 248.754 42.059C249.651 42.059 250.432 41.6972 251.098 40.9737C251.764 40.2357 252.096 39.4109 252.096 38.4993L252.053 24.4125C252.053 23.4285 251.742 22.5964 251.12 21.9163C250.497 21.2363 249.709 20.8962 248.754 20.8962Z" fill="url(#paint4_linear_3080_913)"/>
<path d="M91.3421 16.1183C91.4579 16.1183 91.5157 16.1762 91.5157 16.2919L91.5591 46.8315C91.5591 46.9762 91.5013 47.0485 91.3855 47.0485H86.3498C86.2051 47.0485 86.1328 46.9762 86.1328 46.8315L86.1762 16.2919C86.1762 16.1762 86.2341 16.1183 86.3498 16.1183H91.3421Z" fill="url(#paint5_linear_3080_913)"/>
<path d="M67.0928 16.0559C67.2085 16.0559 67.3098 16.1137 67.3967 16.2295L71.4556 22.09L75.4928 16.2295C75.5796 16.1137 75.6881 16.0559 75.8184 16.0559H81.2664C81.3967 16.0559 81.4618 16.1137 81.4618 16.2295L81.5486 46.7691C81.5486 46.9138 81.4907 46.9861 81.375 46.9861H76.3393C76.2235 46.9861 76.1656 46.9138 76.1656 46.7691L76.1222 24.0869L71.4556 30.859L66.8323 24.0869L66.7889 46.7691C66.7889 46.9138 66.731 46.9861 66.6153 46.9861H61.5796C61.4638 46.9861 61.4059 46.9138 61.4059 46.7691L61.4928 16.2295C61.4928 16.1137 61.5507 16.0559 61.6664 16.0559H67.0928Z" fill="url(#paint6_linear_3080_913)"/>
<path d="M149.582 16.0559C149.726 16.0559 149.799 16.1137 149.799 16.2295L149.755 28.3194V46.7691C149.755 46.9138 149.697 46.9861 149.582 46.9861H144.546C144.43 46.9861 144.372 46.9137 144.372 46.7691L144.416 16.2295C144.416 16.1138 144.488 16.0559 144.633 16.0559H149.582Z" fill="url(#paint7_linear_3080_913)"/>
<path d="M161.541 16.0559C161.686 16.0559 161.758 16.1137 161.758 16.2295L161.845 46.7691C161.845 46.9138 161.773 46.9861 161.628 46.9861H156.636C156.491 46.9861 156.419 46.9137 156.419 46.7691V33.3377C154.198 33.3539 151.976 33.3875 149.756 33.4387V28.4377C151.976 28.3865 154.198 28.3529 156.419 28.3368V16.2295C156.419 16.1138 156.477 16.0559 156.592 16.0559H161.541Z" fill="url(#paint8_linear_3080_913)"/>
<path fill-rule="evenodd" clip-rule="evenodd" d="M196.811 16.0559C198.417 16.0559 199.893 16.4466 201.239 17.228C202.585 18.0094 203.655 19.0585 204.451 20.3752C205.262 21.692 205.667 23.1825 205.667 24.8466C205.667 25.9318 205.5 26.9158 205.168 27.7985C204.835 28.6812 204.444 29.4264 203.996 30.0342C203.561 30.6419 203.163 31.0905 202.802 31.3799C204.408 33.1598 205.211 35.2507 205.211 37.6528L205.254 46.7691C205.254 46.9138 205.182 46.9861 205.037 46.9861H200.002C199.886 46.9861 199.828 46.9427 199.828 46.8559V37.6528C199.828 36.582 199.452 35.6559 198.699 34.8745C197.947 34.0931 197.021 33.7024 195.921 33.7024H192.991L192.947 46.7691C192.947 46.9138 192.89 46.9861 192.774 46.9861H187.738C187.622 46.9861 187.564 46.9138 187.564 46.7691L187.651 16.2295C187.651 16.1137 187.709 16.0559 187.825 16.0559H196.811ZM192.991 28.3629H196.811C197.723 28.3629 198.533 28.0228 199.242 27.3427C199.966 26.6626 200.327 25.8305 200.327 24.8466C200.327 23.906 199.98 23.0957 199.285 22.4156C198.591 21.721 197.766 21.3737 196.811 21.3737H192.991V28.3629Z" fill="url(#paint9_linear_3080_913)"/>
<path d="M215.28 16.0559C215.396 16.0559 215.454 16.1137 215.454 16.2295L215.497 46.7691C215.497 46.9138 215.439 46.9861 215.324 46.9861H210.288C210.143 46.986 210.071 46.9137 210.071 46.7691L210.114 16.2295C210.114 16.1138 210.172 16.0559 210.288 16.0559H215.28Z" fill="url(#paint10_linear_3080_913)"/>
<path d="M236.535 16.0559C236.679 16.0559 236.752 16.1283 236.752 16.2729V21.0698L225.921 41.7768H236.621C236.737 41.7769 236.795 41.8564 236.795 42.0156L236.839 46.7691C236.839 46.9137 236.766 46.9861 236.621 46.9861H220.039C219.894 46.9861 219.821 46.9138 219.821 46.7691L219.865 41.9288L230.761 21.1132H220.451C220.321 21.1132 220.256 21.0554 220.256 20.9396V16.2729C220.256 16.1282 220.321 16.0559 220.451 16.0559H236.535Z" fill="url(#paint11_linear_3080_913)"/>
<path d="M273.606 33.5722L273.389 16.4032C273.389 16.1716 273.519 16.0559 273.78 16.0559H278.186C278.359 16.056 278.446 16.1717 278.446 16.4032L278.49 46.7257C278.49 46.8992 278.417 46.986 278.273 46.9861H274.366L266.66 30.6202L266.986 46.6388C266.986 46.8703 266.848 46.9861 266.573 46.9861H262.124C261.892 46.9861 261.776 46.8848 261.776 46.6822L261.733 16.4032C261.733 16.1716 261.849 16.0559 262.08 16.0559H266.096L273.606 33.5722Z" fill="url(#paint12_linear_3080_913)"/>
<path d="M174.56 15.5605C176.18 15.5606 177.634 15.9582 178.922 16.7539C180.224 17.5498 181.266 18.6211 182.048 19.9668C182.844 21.298 183.241 22.781 183.241 24.416L183.285 38.5029C183.285 40.1234 182.895 41.6065 182.113 42.9521C181.317 44.3122 180.261 45.3977 178.944 46.208C177.628 47.0183 176.166 47.4238 174.56 47.4238C172.982 47.4238 171.528 47.0183 170.196 46.208C168.88 45.3977 167.816 44.3193 167.006 42.9736C166.21 41.6136 165.813 40.1234 165.812 38.5029L165.855 24.416C165.855 22.7665 166.254 21.2836 167.05 19.9668C167.831 18.6355 168.887 17.5713 170.219 16.7754C171.55 15.9652 172.997 15.5605 174.56 15.5605ZM174.56 20.8994C173.648 20.8994 172.866 21.2328 172.215 21.8984C171.564 22.564 171.238 23.4033 171.238 24.416V28.5059C169.445 28.4558 167.651 28.4178 165.857 28.3906L165.843 33.3916C167.642 33.4188 169.44 33.4567 171.238 33.5068V38.5029C171.238 39.4723 171.564 40.3116 172.215 41.0205C172.866 41.7151 173.648 42.0625 174.56 42.0625C175.457 42.0625 176.238 41.7008 176.903 40.9775C177.569 40.2396 177.902 39.4145 177.902 38.5029L177.858 24.416C177.858 23.4322 177.548 22.6 176.926 21.9199C176.304 21.2399 175.515 20.8995 174.56 20.8994Z" fill="#007C52"/>
<path d="M165.847 28.3887C167.646 28.4159 169.445 28.4546 171.243 28.5048V33.5057C169.439 33.4553 167.636 33.4169 165.832 33.3896L165.847 28.3887Z" fill="#77F5AB"/>
<path d="M57 64.4793H59.2149L63 73.7521H63.1488L66.9339 64.4793H69.1488V76.4463H67.4132V67.8017H67.2975L63.7934 76.4298H62.3554L58.8347 67.7851H58.7355V76.4463H57V64.4793Z" fill="url(#paint13_linear_3080_913)"/>
<path d="M77.318 72.7107V67.4711H79.0701V76.4463H77.3511V74.8926H77.2519C76.8387 75.8512 75.9213 76.562 74.5742 76.562C72.8387 76.562 71.6155 75.3967 71.6155 73.1736V67.4711H73.3841V72.9587C73.3841 74.1818 74.1279 74.9587 75.2023 74.9587C76.1858 74.9587 77.318 74.2397 77.318 72.7107Z" fill="url(#paint14_linear_3080_913)"/>
<path d="M83.1567 64.4793V76.4463H81.3881V64.4793H83.1567Z" fill="url(#paint15_linear_3080_913)"/>
<path d="M89.6731 67.4711V68.876H87.8384V73.8017C87.8466 74.8182 88.3425 75 88.9127 75.0083C89.1689 75.0083 89.5574 74.9835 89.8053 74.9587V76.4959C89.5656 76.5289 89.1855 76.562 88.6979 76.562C87.3177 76.562 86.0698 75.8017 86.0863 74.1653V68.876H84.764V67.4711H86.0863V65.3223H87.8384V67.4711H89.6731Z" fill="url(#paint16_linear_3080_913)"/>
<path d="M91.5613 76.4463V67.4711H93.3299V76.4463H91.5613ZM91.3299 65.0413C91.3382 64.4628 91.8423 64 92.4539 64C93.0572 64 93.5613 64.4628 93.5613 65.0413C93.5613 65.6198 93.0572 66.0909 92.4539 66.0826C91.8423 66.0909 91.3382 65.6198 91.3299 65.0413Z" fill="url(#paint17_linear_3080_913)"/>
<path d="M100.937 70.6281V72.1488H95.6314V70.6281H100.937Z" fill="url(#paint18_linear_3080_913)"/>
<path d="M107.04 76.6281C104.495 76.6281 102.834 74.7769 102.842 72C102.834 69.2066 104.495 67.3554 107.04 67.3554C109.569 67.3554 111.222 69.2066 111.222 72C111.222 74.7769 109.569 76.6281 107.04 76.6281ZM104.611 72C104.611 73.7107 105.396 75.157 107.04 75.157C108.66 75.157 109.437 73.7107 109.437 72C109.437 70.281 108.66 68.8182 107.04 68.8099C105.396 68.8182 104.611 70.281 104.611 72Z" fill="url(#paint19_linear_3080_913)"/>
<path d="M113.127 76.4463V67.4711H114.829V68.9421H114.929C115.309 67.9421 116.193 67.3554 117.375 67.3554C118.573 67.3554 119.408 67.9421 119.788 68.9421H119.887C120.309 67.9752 121.284 67.3554 122.581 67.3554C124.201 67.3554 125.35 68.3719 125.358 70.4298V76.4463H123.59V70.595C123.59 69.3802 122.829 68.876 121.904 68.876C120.772 68.876 120.119 69.6529 120.119 70.7273V76.4463H118.367V70.4959C118.367 69.5124 117.697 68.876 116.73 68.876C115.739 68.876 114.896 69.7025 114.896 70.9091V76.4463H113.127Z" fill="url(#paint20_linear_3080_913)"/>
<path d="M127.66 76.4463V67.4711H129.428V76.4463H127.66ZM127.428 65.0413C127.437 64.4628 127.941 64 128.552 64C129.156 64 129.66 64.4628 129.66 65.0413C129.66 65.6198 129.156 66.0909 128.552 66.0826C127.941 66.0909 127.437 65.6198 127.428 65.0413Z" fill="url(#paint21_linear_3080_913)"/>
<path d="M135.548 76.6281C132.928 76.6281 131.341 74.7025 131.35 72C131.341 69.2645 132.986 67.3554 135.515 67.3554C137.565 67.3554 139.044 68.562 139.234 70.3802H137.515C137.333 69.5372 136.664 68.8347 135.548 68.8264C134.094 68.8347 133.118 70.0413 133.118 71.9504C133.118 73.9174 134.069 75.1322 135.548 75.124C136.548 75.1322 137.292 74.5702 137.515 73.6033H139.234C139.044 75.3471 137.664 76.6281 135.548 76.6281Z" fill="url(#paint22_linear_3080_913)"/>
<path d="M146.114 69.9174C145.949 69.2066 145.387 68.7438 144.412 68.7438C143.403 68.7438 142.684 69.2645 142.693 69.9504C142.684 70.4793 143.106 70.8595 144.098 71.0909L145.519 71.4215C147.172 71.7934 147.974 72.5785 147.982 73.8512C147.974 75.4711 146.602 76.6281 144.312 76.6281C142.155 76.6281 140.883 75.6694 140.66 74H142.461C142.618 74.8099 143.23 75.2149 144.296 75.2066C145.436 75.2149 146.172 74.7355 146.18 73.9835C146.172 73.405 145.742 73.0331 144.792 72.8099L143.387 72.5124C141.767 72.157 140.924 71.2893 140.924 70.0496C140.924 68.4545 142.312 67.3554 144.395 67.3554C146.395 67.3554 147.643 68.3719 147.817 69.9174H146.114Z" fill="url(#paint23_linear_3080_913)"/>
<path d="M153.42 73.9174C153.412 71.8678 155.155 71.3388 156.775 71.2231C157.37 71.1901 158.717 71.1157 159.131 71.0992L159.122 70.3802C159.131 69.3636 158.502 68.7769 157.304 68.7769C156.263 68.7769 155.635 69.2562 155.453 69.9174H153.701C153.858 68.4298 155.246 67.3554 157.37 67.3554C158.8 67.3554 160.883 67.876 160.891 70.4793V76.4463H159.172V75.2231H159.106C158.759 75.8926 157.932 76.6446 156.445 76.6446C154.742 76.6446 153.412 75.6694 153.42 73.9174ZM155.139 73.9339C155.139 74.7934 155.85 75.2314 156.841 75.2397C158.279 75.2314 159.139 74.2727 159.139 73.2066L159.131 72.3884C158.726 72.4132 157.445 72.5041 157.023 72.5289C155.866 72.6116 155.139 73.0496 155.139 73.9339Z" fill="url(#paint24_linear_3080_913)"/>
<path d="M164.622 71.124V76.4463H162.854V67.4711H164.556V68.9421H164.656C165.077 67.9752 165.961 67.3554 167.3 67.3554C169.143 67.3554 170.366 68.5207 170.358 70.7438V76.4463H168.606V70.9587C168.598 69.6529 167.895 68.876 166.705 68.876C165.49 68.876 164.622 69.6942 164.622 71.124Z" fill="url(#paint25_linear_3080_913)"/>
<path d="M171.924 73.9174C171.916 71.8678 173.66 71.3388 175.28 71.2231C175.875 71.1901 177.222 71.1157 177.635 71.0992L177.627 70.3802C177.635 69.3636 177.007 68.7769 175.809 68.7769C174.767 68.7769 174.139 69.2562 173.957 69.9174H172.205C172.362 68.4298 173.751 67.3554 175.875 67.3554C177.304 67.3554 179.387 67.876 179.395 70.4793V76.4463H177.676V75.2231H177.61C177.263 75.8926 176.437 76.6446 174.949 76.6446C173.247 76.6446 171.916 75.6694 171.924 73.9174ZM173.643 73.9339C173.643 74.7934 174.354 75.2314 175.346 75.2397C176.784 75.2314 177.643 74.2727 177.643 73.2066L177.635 72.3884C177.23 72.4132 175.949 72.5041 175.528 72.5289C174.371 72.6116 173.643 73.0496 173.643 73.9339Z" fill="url(#paint26_linear_3080_913)"/>
<path d="M183.127 64.4793V76.4463H181.358V64.4793H183.127Z" fill="url(#paint27_linear_3080_913)"/>
<path d="M186.197 79.8182C185.834 79.8099 185.478 79.8017 185.255 79.7686V78.2975C185.454 78.314 185.801 78.3223 186.049 78.3306C186.594 78.3223 187.049 78.2893 187.47 77.157L187.685 76.562L184.396 67.4711H186.28L188.544 74.4298H188.644L190.908 67.4711H192.809L189.106 77.6364C188.586 79.0579 187.677 79.8099 186.197 79.8182Z" fill="url(#paint28_linear_3080_913)"/>
<path d="M199.119 69.9174C198.954 69.2066 198.392 68.7438 197.417 68.7438C196.408 68.7438 195.689 69.2645 195.698 69.9504C195.689 70.4793 196.111 70.8595 197.102 71.0909L198.524 71.4215C200.177 71.7934 200.979 72.5785 200.987 73.8512C200.979 75.4711 199.607 76.6281 197.317 76.6281C195.16 76.6281 193.888 75.6694 193.664 74H195.466C195.623 74.8099 196.235 75.2149 197.301 75.2066C198.441 75.2149 199.177 74.7355 199.185 73.9835C199.177 73.405 198.747 73.0331 197.797 72.8099L196.392 72.5124C194.772 72.157 193.929 71.2893 193.929 70.0496C193.929 68.4545 195.317 67.3554 197.4 67.3554C199.4 67.3554 200.648 68.3719 200.821 69.9174H199.119Z" fill="url(#paint29_linear_3080_913)"/>
<path d="M202.537 76.4463V67.4711H204.305V76.4463H202.537ZM202.305 65.0413C202.313 64.4628 202.818 64 203.429 64C204.032 64 204.537 64.4628 204.537 65.0413C204.537 65.6198 204.032 66.0909 203.429 66.0826C202.818 66.0909 202.313 65.6198 202.305 65.0413Z" fill="url(#paint30_linear_3080_913)"/>
<path d="M211.326 69.9174C211.161 69.2066 210.599 68.7438 209.623 68.7438C208.615 68.7438 207.896 69.2645 207.904 69.9504C207.896 70.4793 208.318 70.8595 209.309 71.0909L210.731 71.4215C212.384 71.7934 213.185 72.5785 213.194 73.8512C213.185 75.4711 211.814 76.6281 209.524 76.6281C207.367 76.6281 206.095 75.6694 205.871 74H207.673C207.83 74.8099 208.442 75.2149 209.508 75.2066C210.648 75.2149 211.384 74.7355 211.392 73.9835C211.384 73.405 210.954 73.0331 210.004 72.8099L208.599 72.5124C206.979 72.157 206.136 71.2893 206.136 70.0496C206.136 68.4545 207.524 67.3554 209.607 67.3554C211.607 67.3554 212.855 68.3719 213.028 69.9174H211.326Z" fill="url(#paint31_linear_3080_913)"/>
<path d="M218.293 73.9174C218.285 71.8678 220.029 71.3388 221.649 71.2231C222.244 71.1901 223.591 71.1157 224.004 71.0992L223.996 70.3802C224.004 69.3636 223.376 68.7769 222.178 68.7769C221.136 68.7769 220.508 69.2562 220.326 69.9174H218.574C218.731 68.4298 220.12 67.3554 222.244 67.3554C223.673 67.3554 225.756 67.876 225.764 70.4793V76.4463H224.045V75.2231H223.979C223.632 75.8926 222.806 76.6446 221.318 76.6446C219.616 76.6446 218.285 75.6694 218.293 73.9174ZM220.012 73.9339C220.012 74.7934 220.723 75.2314 221.715 75.2397C223.153 75.2314 224.012 74.2727 224.012 73.2066L224.004 72.3884C223.599 72.4132 222.318 72.5041 221.897 72.5289C220.739 72.6116 220.012 73.0496 220.012 73.9339Z" fill="url(#paint32_linear_3080_913)"/>
<path d="M231.496 80C229.231 80 227.736 79 227.579 77.3223H229.38C229.554 78.1736 230.347 78.5868 231.512 78.5785C232.917 78.5868 233.802 77.9752 233.81 76.5785V74.8099H233.694C233.38 75.3884 232.736 76.314 231.083 76.314C228.967 76.314 227.331 74.7355 227.331 71.8678C227.331 69 228.942 67.3554 231.099 67.3554C232.769 67.3554 233.38 68.3636 233.711 68.9256H233.826V67.4711H235.545V76.6446C235.554 78.9504 233.81 80 231.496 80ZM229.132 71.9008C229.124 73.6612 229.934 74.8512 231.479 74.8595C232.983 74.8512 233.826 73.7521 233.826 71.9008C233.826 70.0826 233 68.8512 231.479 68.8595C229.917 68.8512 229.124 70.1818 229.132 71.9008Z" fill="url(#paint33_linear_3080_913)"/>
<path d="M241.393 76.6281C238.748 76.6281 237.12 74.8017 237.128 72.0165C237.12 69.2562 238.773 67.3554 241.277 67.3554C243.318 67.3554 245.261 68.6198 245.261 71.8678V72.4959H238.88C238.93 74.2066 239.938 75.1736 241.409 75.1736C242.409 75.1736 243.062 74.7438 243.36 74.1983H245.145C244.748 75.6529 243.368 76.6281 241.393 76.6281ZM238.889 71.1736H243.525C243.525 69.8099 242.641 68.8017 241.294 68.8099C239.88 68.8017 238.963 69.9091 238.889 71.1736Z" fill="url(#paint34_linear_3080_913)"/>
<path d="M248.612 71.124V76.4463H246.843V67.4711H248.546V68.9421H248.645C249.066 67.9752 249.951 67.3554 251.29 67.3554C253.133 67.3554 254.356 68.5207 254.347 70.7438V76.4463H252.595V70.9587C252.587 69.6529 251.885 68.876 250.695 68.876C249.48 68.876 248.612 69.6942 248.612 71.124Z" fill="url(#paint35_linear_3080_913)"/>
<path d="M260.525 67.4711V68.876H258.691V73.8017C258.699 74.8182 259.195 75 259.765 75.0083C260.021 75.0083 260.41 74.9835 260.658 74.9587V76.4959C260.418 76.5289 260.038 76.562 259.55 76.562C258.17 76.562 256.922 75.8017 256.939 74.1653V68.876H255.616V67.4711H256.939V65.3223H258.691V67.4711H260.525Z" fill="url(#paint36_linear_3080_913)"/>
</g>
<defs>
<linearGradient id="paint0_linear_3080_913" x1="0.00390625" y1="46.9559" x2="318.952" y2="46.9559" gradientUnits="userSpaceOnUse">
<stop stop-color="#B2FFD2" stop-opacity="0"/>
<stop offset="0.202702" stop-color="#B2FFD2" stop-opacity="0.719753"/>
<stop offset="0.413518" stop-color="#77F5AB" stop-opacity="0.944791"/>
<stop offset="0.506212" stop-color="#77F5AB"/>
<stop offset="0.75" stop-color="#77F5AB" stop-opacity="0.878879"/>
<stop offset="0.887168" stop-color="#B2FFD2" stop-opacity="0.444009"/>
<stop offset="1" stop-color="#B2FFD2" stop-opacity="0"/>
</linearGradient>
<linearGradient id="paint1_linear_3080_913" x1="39.7656" y1="31.4884" x2="278.49" y2="31.4884" gradientUnits="userSpaceOnUse">
<stop stop-color="#103C69"/>
<stop offset="0.406965" stop-color="#066F6F"/>
<stop offset="0.52814" stop-color="#007C52"/>
<stop offset="0.71316" stop-color="#009261"/>
<stop offset="1" stop-color="#00A36C"/>
</linearGradient>
<linearGradient id="paint2_linear_3080_913" x1="39.7656" y1="31.4884" x2="278.49" y2="31.4884" gradientUnits="userSpaceOnUse">
<stop stop-color="#103C69"/>
<stop offset="0.406965" stop-color="#066F6F"/>
<stop offset="0.52814" stop-color="#007C52"/>
<stop offset="0.71316" stop-color="#009261"/>
<stop offset="1" stop-color="#00A36C"/>
</linearGradient>
<linearGradient id="paint3_linear_3080_913" x1="39.7656" y1="31.4884" x2="278.49" y2="31.4884" gradientUnits="userSpaceOnUse">
<stop stop-color="#103C69"/>
<stop offset="0.406965" stop-color="#066F6F"/>
<stop offset="0.52814" stop-color="#007C52"/>
<stop offset="0.71316" stop-color="#009261"/>
<stop offset="1" stop-color="#00A36C"/>
</linearGradient>
<linearGradient id="paint4_linear_3080_913" x1="39.7656" y1="31.4884" x2="278.49" y2="31.4884" gradientUnits="userSpaceOnUse">
<stop stop-color="#103C69"/>
<stop offset="0.406965" stop-color="#066F6F"/>
<stop offset="0.52814" stop-color="#007C52"/>
<stop offset="0.71316" stop-color="#009261"/>
<stop offset="1" stop-color="#00A36C"/>
</linearGradient>
<linearGradient id="paint5_linear_3080_913" x1="39.7656" y1="31.4884" x2="278.49" y2="31.4884" gradientUnits="userSpaceOnUse">
<stop stop-color="#103C69"/>
<stop offset="0.406965" stop-color="#066F6F"/>
<stop offset="0.52814" stop-color="#007C52"/>
<stop offset="0.71316" stop-color="#009261"/>
<stop offset="1" stop-color="#00A36C"/>
</linearGradient>
<linearGradient id="paint6_linear_3080_913" x1="39.7656" y1="31.4884" x2="278.49" y2="31.4884" gradientUnits="userSpaceOnUse">
<stop stop-color="#103C69"/>
<stop offset="0.406965" stop-color="#066F6F"/>
<stop offset="0.52814" stop-color="#007C52"/>
<stop offset="0.71316" stop-color="#009261"/>
<stop offset="1" stop-color="#00A36C"/>
</linearGradient>
<linearGradient id="paint7_linear_3080_913" x1="39.7656" y1="31.4884" x2="278.49" y2="31.4884" gradientUnits="userSpaceOnUse">
<stop stop-color="#103C69"/>
<stop offset="0.406965" stop-color="#066F6F"/>
<stop offset="0.52814" stop-color="#007C52"/>
<stop offset="0.71316" stop-color="#009261"/>
<stop offset="1" stop-color="#00A36C"/>
</linearGradient>
<linearGradient id="paint8_linear_3080_913" x1="39.7656" y1="31.4884" x2="278.49" y2="31.4884" gradientUnits="userSpaceOnUse">
<stop stop-color="#103C69"/>
<stop offset="0.406965" stop-color="#066F6F"/>
<stop offset="0.52814" stop-color="#007C52"/>
<stop offset="0.71316" stop-color="#009261"/>
<stop offset="1" stop-color="#00A36C"/>
</linearGradient>
<linearGradient id="paint9_linear_3080_913" x1="39.7656" y1="31.4884" x2="278.49" y2="31.4884" gradientUnits="userSpaceOnUse">
<stop stop-color="#103C69"/>
<stop offset="0.406965" stop-color="#066F6F"/>
<stop offset="0.52814" stop-color="#007C52"/>
<stop offset="0.71316" stop-color="#009261"/>
<stop offset="1" stop-color="#00A36C"/>
</linearGradient>
<linearGradient id="paint10_linear_3080_913" x1="39.7656" y1="31.4884" x2="278.49" y2="31.4884" gradientUnits="userSpaceOnUse">
<stop stop-color="#103C69"/>
<stop offset="0.406965" stop-color="#066F6F"/>
<stop offset="0.52814" stop-color="#007C52"/>
<stop offset="0.71316" stop-color="#009261"/>
<stop offset="1" stop-color="#00A36C"/>
</linearGradient>
<linearGradient id="paint11_linear_3080_913" x1="39.7656" y1="31.4884" x2="278.49" y2="31.4884" gradientUnits="userSpaceOnUse">
<stop stop-color="#103C69"/>
<stop offset="0.406965" stop-color="#066F6F"/>
<stop offset="0.52814" stop-color="#007C52"/>
<stop offset="0.71316" stop-color="#009261"/>
<stop offset="1" stop-color="#00A36C"/>
</linearGradient>
<linearGradient id="paint12_linear_3080_913" x1="39.7656" y1="31.4884" x2="278.49" y2="31.4884" gradientUnits="userSpaceOnUse">
<stop stop-color="#103C69"/>
<stop offset="0.406965" stop-color="#066F6F"/>
<stop offset="0.52814" stop-color="#007C52"/>
<stop offset="0.71316" stop-color="#009261"/>
<stop offset="1" stop-color="#00A36C"/>
</linearGradient>
<linearGradient id="paint13_linear_3080_913" x1="57" y1="72" x2="260.658" y2="72" gradientUnits="userSpaceOnUse">
<stop stop-color="#103C69"/>
<stop offset="0.406965" stop-color="#066F6F"/>
<stop offset="0.52814" stop-color="#007C52"/>
<stop offset="0.71316" stop-color="#009261"/>
<stop offset="1" stop-color="#00A36C"/>
</linearGradient>
<linearGradient id="paint14_linear_3080_913" x1="57" y1="72" x2="260.658" y2="72" gradientUnits="userSpaceOnUse">
<stop stop-color="#103C69"/>
<stop offset="0.406965" stop-color="#066F6F"/>
<stop offset="0.52814" stop-color="#007C52"/>
<stop offset="0.71316" stop-color="#009261"/>
<stop offset="1" stop-color="#00A36C"/>
</linearGradient>
<linearGradient id="paint15_linear_3080_913" x1="57" y1="72" x2="260.658" y2="72" gradientUnits="userSpaceOnUse">
<stop stop-color="#103C69"/>
<stop offset="0.406965" stop-color="#066F6F"/>
<stop offset="0.52814" stop-color="#007C52"/>
<stop offset="0.71316" stop-color="#009261"/>
<stop offset="1" stop-color="#00A36C"/>
</linearGradient>
<linearGradient id="paint16_linear_3080_913" x1="57" y1="72" x2="260.658" y2="72" gradientUnits="userSpaceOnUse">
<stop stop-color="#103C69"/>
<stop offset="0.406965" stop-color="#066F6F"/>
<stop offset="0.52814" stop-color="#007C52"/>
<stop offset="0.71316" stop-color="#009261"/>
<stop offset="1" stop-color="#00A36C"/>
</linearGradient>
<linearGradient id="paint17_linear_3080_913" x1="57" y1="72" x2="260.658" y2="72" gradientUnits="userSpaceOnUse">
<stop stop-color="#103C69"/>
<stop offset="0.406965" stop-color="#066F6F"/>
<stop offset="0.52814" stop-color="#007C52"/>
<stop offset="0.71316" stop-color="#009261"/>
<stop offset="1" stop-color="#00A36C"/>
</linearGradient>
<linearGradient id="paint18_linear_3080_913" x1="57" y1="72" x2="260.658" y2="72" gradientUnits="userSpaceOnUse">
<stop stop-color="#103C69"/>
<stop offset="0.406965" stop-color="#066F6F"/>
<stop offset="0.52814" stop-color="#007C52"/>
<stop offset="0.71316" stop-color="#009261"/>
<stop offset="1" stop-color="#00A36C"/>
</linearGradient>
<linearGradient id="paint19_linear_3080_913" x1="57" y1="72" x2="260.658" y2="72" gradientUnits="userSpaceOnUse">
<stop stop-color="#103C69"/>
<stop offset="0.406965" stop-color="#066F6F"/>
<stop offset="0.52814" stop-color="#007C52"/>
<stop offset="0.71316" stop-color="#009261"/>
<stop offset="1" stop-color="#00A36C"/>
</linearGradient>
<linearGradient id="paint20_linear_3080_913" x1="57" y1="72" x2="260.658" y2="72" gradientUnits="userSpaceOnUse">
<stop stop-color="#103C69"/>
<stop offset="0.406965" stop-color="#066F6F"/>
<stop offset="0.52814" stop-color="#007C52"/>
<stop offset="0.71316" stop-color="#009261"/>
<stop offset="1" stop-color="#00A36C"/>
</linearGradient>
<linearGradient id="paint21_linear_3080_913" x1="57" y1="72" x2="260.658" y2="72" gradientUnits="userSpaceOnUse">
<stop stop-color="#103C69"/>
<stop offset="0.406965" stop-color="#066F6F"/>
<stop offset="0.52814" stop-color="#007C52"/>
<stop offset="0.71316" stop-color="#009261"/>
<stop offset="1" stop-color="#00A36C"/>
</linearGradient>
<linearGradient id="paint22_linear_3080_913" x1="57" y1="72" x2="260.658" y2="72" gradientUnits="userSpaceOnUse">
<stop stop-color="#103C69"/>
<stop offset="0.406965" stop-color="#066F6F"/>
<stop offset="0.52814" stop-color="#007C52"/>
<stop offset="0.71316" stop-color="#009261"/>
<stop offset="1" stop-color="#00A36C"/>
</linearGradient>
<linearGradient id="paint23_linear_3080_913" x1="57" y1="72" x2="260.658" y2="72" gradientUnits="userSpaceOnUse">
<stop stop-color="#103C69"/>
<stop offset="0.406965" stop-color="#066F6F"/>
<stop offset="0.52814" stop-color="#007C52"/>
<stop offset="0.71316" stop-color="#009261"/>
<stop offset="1" stop-color="#00A36C"/>
</linearGradient>
<linearGradient id="paint24_linear_3080_913" x1="57" y1="72" x2="260.658" y2="72" gradientUnits="userSpaceOnUse">
<stop stop-color="#103C69"/>
<stop offset="0.406965" stop-color="#066F6F"/>
<stop offset="0.52814" stop-color="#007C52"/>
<stop offset="0.71316" stop-color="#009261"/>
<stop offset="1" stop-color="#00A36C"/>
</linearGradient>
<linearGradient id="paint25_linear_3080_913" x1="57" y1="72" x2="260.658" y2="72" gradientUnits="userSpaceOnUse">
<stop stop-color="#103C69"/>
<stop offset="0.406965" stop-color="#066F6F"/>
<stop offset="0.52814" stop-color="#007C52"/>
<stop offset="0.71316" stop-color="#009261"/>
<stop offset="1" stop-color="#00A36C"/>
</linearGradient>
<linearGradient id="paint26_linear_3080_913" x1="57" y1="72" x2="260.658" y2="72" gradientUnits="userSpaceOnUse">
<stop stop-color="#103C69"/>
<stop offset="0.406965" stop-color="#066F6F"/>
<stop offset="0.52814" stop-color="#007C52"/>
<stop offset="0.71316" stop-color="#009261"/>
<stop offset="1" stop-color="#00A36C"/>
</linearGradient>
<linearGradient id="paint27_linear_3080_913" x1="57" y1="72" x2="260.658" y2="72" gradientUnits="userSpaceOnUse">
<stop stop-color="#103C69"/>
<stop offset="0.406965" stop-color="#066F6F"/>
<stop offset="0.52814" stop-color="#007C52"/>
<stop offset="0.71316" stop-color="#009261"/>
<stop offset="1" stop-color="#00A36C"/>
</linearGradient>
<linearGradient id="paint28_linear_3080_913" x1="57" y1="72" x2="260.658" y2="72" gradientUnits="userSpaceOnUse">
<stop stop-color="#103C69"/>
<stop offset="0.406965" stop-color="#066F6F"/>
<stop offset="0.52814" stop-color="#007C52"/>
<stop offset="0.71316" stop-color="#009261"/>
<stop offset="1" stop-color="#00A36C"/>
</linearGradient>
<linearGradient id="paint29_linear_3080_913" x1="57" y1="72" x2="260.658" y2="72" gradientUnits="userSpaceOnUse">
<stop stop-color="#103C69"/>
<stop offset="0.406965" stop-color="#066F6F"/>
<stop offset="0.52814" stop-color="#007C52"/>
<stop offset="0.71316" stop-color="#009261"/>
<stop offset="1" stop-color="#00A36C"/>
</linearGradient>
<linearGradient id="paint30_linear_3080_913" x1="57" y1="72" x2="260.658" y2="72" gradientUnits="userSpaceOnUse">
<stop stop-color="#103C69"/>
<stop offset="0.406965" stop-color="#066F6F"/>
<stop offset="0.52814" stop-color="#007C52"/>
<stop offset="0.71316" stop-color="#009261"/>
<stop offset="1" stop-color="#00A36C"/>
</linearGradient>
<linearGradient id="paint31_linear_3080_913" x1="57" y1="72" x2="260.658" y2="72" gradientUnits="userSpaceOnUse">
<stop stop-color="#103C69"/>
<stop offset="0.406965" stop-color="#066F6F"/>
<stop offset="0.52814" stop-color="#007C52"/>
<stop offset="0.71316" stop-color="#009261"/>
<stop offset="1" stop-color="#00A36C"/>
</linearGradient>
<linearGradient id="paint32_linear_3080_913" x1="57" y1="72" x2="260.658" y2="72" gradientUnits="userSpaceOnUse">
<stop stop-color="#103C69"/>
<stop offset="0.406965" stop-color="#066F6F"/>
<stop offset="0.52814" stop-color="#007C52"/>
<stop offset="0.71316" stop-color="#009261"/>
<stop offset="1" stop-color="#00A36C"/>
</linearGradient>
<linearGradient id="paint33_linear_3080_913" x1="57" y1="72" x2="260.658" y2="72" gradientUnits="userSpaceOnUse">
<stop stop-color="#103C69"/>
<stop offset="0.406965" stop-color="#066F6F"/>
<stop offset="0.52814" stop-color="#007C52"/>
<stop offset="0.71316" stop-color="#009261"/>
<stop offset="1" stop-color="#00A36C"/>
</linearGradient>
<linearGradient id="paint34_linear_3080_913" x1="57" y1="72" x2="260.658" y2="72" gradientUnits="userSpaceOnUse">
<stop stop-color="#103C69"/>
<stop offset="0.406965" stop-color="#066F6F"/>
<stop offset="0.52814" stop-color="#007C52"/>
<stop offset="0.71316" stop-color="#009261"/>
<stop offset="1" stop-color="#00A36C"/>
</linearGradient>
<linearGradient id="paint35_linear_3080_913" x1="57" y1="72" x2="260.658" y2="72" gradientUnits="userSpaceOnUse">
<stop stop-color="#103C69"/>
<stop offset="0.406965" stop-color="#066F6F"/>
<stop offset="0.52814" stop-color="#007C52"/>
<stop offset="0.71316" stop-color="#009261"/>
<stop offset="1" stop-color="#00A36C"/>
</linearGradient>
<linearGradient id="paint36_linear_3080_913" x1="57" y1="72" x2="260.658" y2="72" gradientUnits="userSpaceOnUse">
<stop stop-color="#103C69"/>
<stop offset="0.406965" stop-color="#066F6F"/>
<stop offset="0.52814" stop-color="#007C52"/>
<stop offset="0.71316" stop-color="#009261"/>
<stop offset="1" stop-color="#00A36C"/>
</linearGradient>
<clipPath id="clip0_3080_913">
<rect width="318.948" height="94.4621" fill="white"/>
</clipPath>
</defs>
</svg>
